HIERARCHY
ROOT HipCenter
{
    OFFSET 0.0 0.0 -0.0
    CHANNELS 6 Xposition Yposition Zposition Zrotation Xrotation Yrotation
    JOINT Spine
    {
        OFFSET 0.0 28.488142013549805 0.0
        CHANNELS 3 Zrotation Xrotation Yrotation
        JOINT ShoulderCenter
        {
            OFFSET 0.0 21.235279083251953 0.0
            CHANNELS 3 Zrotation Xrotation Yrotation
            JOINT LeftShoulder
            {
                OFFSET 16.294086456298828 0.0 0.0
                CHANNELS 3 Zrotation Xrotation Yrotation
                JOINT LeftElbow
                {
                    OFFSET 24.36598014831543 0.0 0.0
                    CHANNELS 3 Zrotation Xrotation Yrotation
                    JOINT LeftWrist
                    {
                        OFFSET 20.987735748291016 0.0 0.0
                        CHANNELS 3 Zrotation Xrotation Yrotation
                        JOINT LeftHand
                        {
                            OFFSET 6.786062717437744 0.0 0.0
                            CHANNELS 3 Zrotation Xrotation Yrotation
                            End Site
                            {
                                OFFSET 2.7144250869750977 0.0 0.0
                            }
                        }
                    }
                }
            }
            JOINT RightShoulder
            {
                OFFSET -16.294086456298828 0.0 0.0
                CHANNELS 3 Zrotation Xrotation Yrotation
                JOINT RightElbow
                {
                    OFFSET -24.36598014831543 0.0 0.0
                    CHANNELS 3 Zrotation Xrotation Yrotation
                    JOINT RightWrist
                    {
                        OFFSET -20.987735748291016 0.0 0.0
                        CHANNELS 3 Zrotation Xrotation Yrotation
                        JOINT RightHand
                        {
                            OFFSET -6.786062717437744 0.0 0.0
                            CHANNELS 3 Zrotation Xrotation Yrotation
                            End Site
                            {
                                OFFSET -2.7144250869750977 0.0 0.0
                            }
                        }
                    }
                }
            }
            End Site
            {
                OFFSET 0.0 8.494112014770508 0.0
            }
        }
    }
    JOINT LeftHip
    {
        OFFSET 7.419747352600098 0.0 0.0
        CHANNELS 3 Zrotation Xrotation Yrotation
        JOINT LeftKnee
        {
            OFFSET 0.0 -28.94529914855957 0.0
            CHANNELS 3 Zrotation Xrotation Yrotation
            JOINT LeftAnkle
            {
                OFFSET 0.0 -34.36289978027344 0.0
                CHANNELS 3 Zrotation Xrotation Yrotation
                JOINT LeftFoot
                {
                    OFFSET 0.0 -11.840649604797363 0.0
                    CHANNELS 3 Zrotation Xrotation Yrotation
                    End Site
                    {
                        OFFSET 0.0 0.0 4.736259937286377
                    }
                }
            }
        }
    }
    JOINT RightHip
    {
        OFFSET -7.419747352600098 0.0 0.0
        CHANNELS 3 Zrotation Xrotation Yrotation
        JOINT RightKnee
        {
            OFFSET 0.0 -28.94529914855957 0.0
            CHANNELS 3 Zrotation Xrotation Yrotation
            JOINT RightAnkle
            {
                OFFSET 0.0 -34.36289978027344 0.0
                CHANNELS 3 Zrotation Xrotation Yrotation
                JOINT RightFoot
                {
                    OFFSET 0.0 -11.840649604797363 0.0
                    CHANNELS 3 Zrotation Xrotation Yrotation
                    End Site
                    {
                        OFFSET 0.0 0.0 4.736259937286377
                    }
                }
            }
        }
    }
}
MOTION
Frames: 5
Frame Time: 0.03333333333333333
114.17609405517578 1.3810100555419922 -333.1069030761719 -1.3479644842963685 17.00658723742975 -172.0467141349223 -0.9163321949618507 -1.6928673129144085 -0.0714117792009417 -6.435375404047594e-08 8.351571009724753e-07 11.766528671050951 -26.164270359061057 37.00981995206285 -19.250336485307198 3.068676239220134e-06 -1.7900125660431335e-06 23.45558945893636 1.4109468841905296e-06 51.139671541378 7.511315786900696 1.3914926731402886e-15 -6.3611093629270335e-15 7.724336021587778e-32 39.00686253937013 52.877039477219014 -13.620689955293416 1.1342367547678e-06 1.1912065591555854e-06 -31.762909033654967 2.7406794044461887e-06 43.94489439625276 -39.1325379351765 0.0 0.0 -1.5902773407317584e-15 -17.28679268316697 5.375631241007095 22.45812206260243 -12.537725495658941 -7.335804298780071 -4.879300047785024 69.30579033922622 67.09640424579199 -33.65023495239807 0.0 0.0 -5.963540027744094e-16 -9.733427649070313 8.356710234492878 -27.090237997028822 35.64264407873865 -6.131996980720384 3.4969300856757743 -93.20870904480503 57.661434740991496 59.58999019816837 3.975693351829395e-16 -6.361109362927032e-15 2.2069531490250793e-32
119.96839904785156 0.9131160378456116 -333.5680847167969 2.8350939068620145 17.864404094524076 -173.8742684618621 -0.9839097271933793 -1.2991785003203644 -0.08563244760254338 -4.995825343921567e-07 1.0340245846572285e-07 12.021871395891205 -28.125524826382417 24.47867368543418 -18.68128884565813 1.0192675756580524e-06 -6.32882729342164e-06 22.762291659327268 3.1354712099683496e-06 74.9002225036723 12.040233145126992 0.0 0.0 0.0 46.5959614831939 57.21903075331131 -11.816405939151824 -1.4202523432860674e-06 -2.900200018366806e-06 -35.674624470563714 -8.998951504054946e-07 34.66481330193628 -26.768546489097837 -1.5902773407317582e-15 2.2069531490250793e-32 -1.5902773407317582e-15 -13.236104732848075 5.790224177649825 21.768189170375866 -8.432809239924259 -11.595095716563856 -5.976215582154232 -19.487085923228385 -6.457097999724031 -6.733174768087831 -1.5902773407317584e-15 -6.3611093629270335e-15 1.5902773407317584e-15 0.976238540367135 10.093566198587265 -27.910956535909914 40.872413351695336 -21.42737420647915 18.933563879758907 -129.22418686285454 62.393488437823464 89.59437816681425 -2.385416011097637e-15 6.361109362927033e-15 1.3241718894150476e-31
122.30379486083984 1.0400539636611938 -333.4584045410156 3.3888177498040664 17.67990887556786 -177.28314249643768 -0.661026917300701 -1.581964338914623 -0.03920568686847203 -5.867848933386546e-07 -1.2257860827704719e-06 15.335753861732107 -32.75248524496175 31.05467977529226 -20.47056424721816 -3.371519236619855e-07 -9.067017447575498e-07 18.87699083883179 -4.854925324092249e-06 18.65390590446734 27.014750234279074 -2.385416011097637e-15 0.0 0.0 49.95975771477244 59.111336513015175 -12.43378793158561 3.3347820135701282e-06 2.8558533990721063e-06 -34.65590100511988 3.0276777159331457e-07 30.125500828780606 -25.66837007029717 -1.5902773407317582e-15 -6.3611093629270335e-15 3.1805546814635168e-15 -15.801930279906854 7.457719331832705 23.326975532215897 -5.7794583793503715 -18.951775772226377 -8.613017049882806 78.3583225154958 76.20104240839005 -54.0008159338958 7.951386703658792e-16 2.758691436281349e-33 3.975693351829396e-16 2.4361040940448095 7.092179427689046 -27.569805860382406 0.31216209728765626 -20.791596249218028 2.5905464818582744 -83.4545569633909 60.62298391442672 74.78426675045024 -1.5902773407317584e-15 4.4139062980501586e-32 -3.1805546814635168e-15
128.75430297851562 1.5762649774551392 -336.6349792480469 7.211630932551442 20.821530973787134 -177.88374504820675 -3.2769169424669085 -1.5970216730683222 -0.24994149955831158 -1.4355229768810589e-06 3.7788664331928e-07 14.251345426828502 -33.26559570079894 21.60127750013616 -17.052375249847817 -3.4954756996695616e-07 2.925547614682039e-06 21.63401104172807 -7.305443585497149e-06 83.47943841876602 8.28029836868316 -1.5902773407317592e-15 6.361109362927035e-15 6.361109362927035e-15 56.54414735092539 61.988192801344674 -10.011029647008838 1.900575089399196e-06 2.878545068383909e-07 -30.154951532545528 -9.543810509325496e-07 -3.402827538435426 -33.54009989539455 2.427648463927587e-31 -6.361109362927033e-15 4.373262687012335e-15 -11.272605084948406 17.238674979508318 25.639158242738592 -6.675117847822358 -34.29099451530813 -13.423521490505012 112.02743206328375 78.37578763702749 -93.29475275582044 7.951386703658792e-16 0.0 0.0 5.153370275468012 7.560864812515848 -27.384741086687324 11.368557643795123 -13.982352832103011 4.334635391618819 -87.85943787468608 60.076830995128844 68.30406085487061 -2.3854160110976384e-15 6.361109362927035e-15 -3.1805546814635176e-15
128.98880004882812 1.790134072303772 -336.7774963378906 6.851719055044288 20.738700642819836 -178.13609710364003 -1.0522286315414464 -1.2929201977936786 -0.1313517971661432 -1.4685014372746075e-06 -3.511927098702407e-08 13.13996392798652 -44.0671063838054 26.743065633703743 -14.863428695596282 -3.7859744233370864e-06 1.5048068763105112e-06 15.54327136803471 3.9569013756129475e-06 33.356153909247844 24.2630051941263 1.3914926731402886e-15 6.3611093629270335e-15 -1.5902773407317584e-15 47.22538423290308 55.83648722991523 -1.5775359909583495 3.4753690109972786e-06 3.858482434657972e-06 -30.59559898320589 4.469578021988235e-09 56.947732287624824 -26.22477226267686 7.951386703658792e-16 -6.3611093629270335e-15 1.5902773407317584e-15 -14.96891006339209 14.975564653111912 26.369863800787304 2.5274486204211306 -26.655015116386142 -7.922939682333261 74.84130613121712 75.33401418843295 -58.64941610934506 0.0 0.0 -5.963540027744094e-16 1.974377723309811 5.717661764264433 -26.91466026138605 10.34805714940395 -1.0083504221923134 0.27557559709489765 -69.57713816488264 55.843901639005225 49.02355663873528 7.95138670365879e-16 2.2069531490250793e-32 3.180554681463516e-15
